<svg height='100px' width='100px'  fill="#1A1A1A" xmlns:dc="http://purl.org/dc/elements/1.1/" xmlns:cc="http://creativecommons.org/ns#" xmlns:rdf="http://www.w3.org/1999/02/22-rdf-syntax-ns#" xmlns:svg="http://www.w3.org/2000/svg" xmlns="http://www.w3.org/2000/svg" xmlns:sodipodi="http://sodipodi.sourceforge.net/DTD/sodipodi-0.dtd" xmlns:inkscape="http://www.inkscape.org/namespaces/inkscape" version="1.1" x="0px" y="0px" viewBox="0 0 100 100"><g transform="translate(0,-952.36218)"><path d="m 50,981.36219 c -1.1046,0 -2,0.89543 -2,2 l 0,17.00001 -17,0 c -1.1046,0 -2,0.8954 -2,2 0,1.1046 0.8954,2 2,2 l 17,0 0,17 c 0,1.1046 0.8954,2 2,2 1.1046,0 2,-0.8954 2,-2 l 0,-17 17,0 c 1.1046,0 2,-0.8954 2,-2 0,-1.1046 -0.8954,-2 -2,-2 l -17,0 0,-17.00001 c 0,-1.10457 -0.8954,-2 -2,-2 z" style="text-indent:0;text-transform:none;direction:ltr;block-progression:tb;baseline-shift:baseline;color:#000000;enable-background:accumulate;" fill="#1A1A1A" fill-opacity="1" stroke="none" marker="none" visibility="visible" display="inline" overflow="visible"></path></g></svg>