<svg height="100px" width="100px" fill="#1A1A1A" xmlns:dc="http://purl.org/dc/elements/1.1/" xmlns:cc="http://creativecommons.org/ns#" xmlns:rdf="http://www.w3.org/1999/02/22-rdf-syntax-ns#" xmlns:svg="http://www.w3.org/2000/svg" xmlns="http://www.w3.org/2000/svg" xmlns:sodipodi="http://sodipodi.sourceforge.net/DTD/sodipodi-0.dtd" xmlns:inkscape="http://www.inkscape.org/namespaces/inkscape" version="1.1" x="0px" y="0px" viewBox="0 0 100 100">
	<g transform="translate(0,-952.36218)">
		<path style="font-size:medium;font-style:normal;font-variant:normal;font-weight:normal;font-stretch:normal;text-indent:0;text-align:start;text-decoration:none;line-height:normal;letter-spacing:normal;word-spacing:normal;text-transform:none;direction:ltr;block-progression:tb;writing-mode:lr-tb;text-anchor:start;baseline-shift:baseline;opacity:1;color:#000000;fill-opacity:1;stroke:none;stroke-width:6;marker:none;visibility:visible;display:inline;overflow:visible;enable-background:accumulate;font-family:Sans;-inkscape-font-specification:Sans" d="M 76.65625 9 C 72.982782 9 69.320674 10.39808 66.53125 13.1875 L 15.28125 64.4375 A 3.0003 3.0003 0 0 0 14.5 65.8125 L 9.09375 87.25 A 3.0003 3.0003 0 0 0 12.71875 90.90625 L 34.1875 85.5 A 3.0003 3.0003 0 0 0 35.5625 84.6875 L 86.78125 33.46875 C 92.360109 27.8899 92.360124 18.76635 86.78125 13.1875 C 83.991829 10.39807 80.329718 9 76.65625 9 z M 76.65625 14.96875 C 78.777656 14.96875 80.911601 15.78659 82.5625 17.4375 C 85.864326 20.73931 85.864321 25.91694 82.5625 29.21875 L 78.78125 33 L 67 21.1875 L 70.75 17.4375 C 72.400906 15.78659 74.534844 14.96875 76.65625 14.96875 z M 62.75 25.4375 L 74.5625 37.21875 L 31.9375 79.84375 L 16.125 83.875 L 20.125 68.0625 L 62.75 25.4375 z " transform="translate(0,952.36218)">
		</path>
	</g>
</svg>
