<svg height='100px' width='100px'  fill="#1A1A1A" xmlns="http://www.w3.org/2000/svg" xmlns:xlink="http://www.w3.org/1999/xlink" version="1.1" x="0px" y="0px" viewBox="-792 550.6 48 46" style="enable-background:new -792 550.6 48 46;" xml:space="preserve"><g><g><path d="M-753.7,577.9l-19.6-18.6c-1.7-1.6-4.2-1.6-5.7-0.1l-4.1,4.3c-1.5,1.5-1.3,4.1,0.4,5.7l19.6,18.6    c1.7,1.6,4.2,1.6,5.7,0.1l4.1-4.3C-751.8,582-752,579.5-753.7,577.9z M-766.9,568.7c0.5,1.1,1.1,2.3,1.3,3.5    c0.2,1-0.1,1.9-0.6,2.3c-0.5,0.3-1.2,0.1-1.9-0.4c-2.9-2.2-6.1-6.9-4.3-10.6L-766.9,568.7z M-774.9,561l1.5,1.5    c-2.2,3.8,0.4,8.6,3.3,11.4c0.4,0.4,0.8,0.7,1.2,1c1.2,0.9,2.3,1.1,3.3,0.5c1-0.6,1.4-1.9,1.2-3.5c-0.1-0.4-0.2-0.8-0.3-1.2    l4.4,4.2c0.7,2.1-0.4,5.2-1.6,6.9c-0.5,0.7-1.2,1.5-1.9,2l-4.5-4.3c0.7,0.2,1.3,0.3,2,0.2c0.6,0,1.2-0.2,1.7-0.5s0.9-0.7,1.2-1.2    c-0.5,0.3-0.9,0.6-1.4,0.7c-0.5,0.1-1,0.2-1.5,0.1c-1-0.1-1.9-0.4-2.9-0.9c-0.5-0.2-1.1-0.5-1.6-0.8l-5.4-5.2    c-0.2-0.8-0.3-1.8-0.4-2.7c-0.1-0.8-0.1-1.6-0.2-2.4c-0.2-2-0.4-4-0.3-6C-776.6,560.3-775.6,560.3-774.9,561z M-781.3,565.1l2.9-3    c0,1.7,0.2,3.3,0.3,4.8c0.1,0.8,0.1,1.5,0.2,2.3c0,0.4,0.1,0.8,0.1,1.2l-3.2-3C-781.7,566.7-781.9,565.7-781.3,565.1z     M-759.2,586.2c-0.5,0.6-1.6,0.5-2.3-0.2l-1.5-1.5c1.1-0.8,1.9-1.9,2-2.1c1-1.4,2.1-3.9,2.1-6.2l3.5,3.4c0.7,0.7,0.9,1.7,0.3,2.3    L-759.2,586.2z"></path><path d="M-744.9,591.7l-5.6-3.8l0.9-0.9c0.7-0.7,0.6-1.8-0.1-2.5s-1.9-0.7-2.5,0l-4.1,4.3    c-0.7,0.7-0.6,1.8,0.1,2.5s1.9,0.7,2.5,0l0.9-0.9l4,5.4c1.1,1.1,2.9,1,4-0.1C-743.7,594.6-743.7,592.7-744.9,591.7z"></path><path d="M-779.8,555.9c-0.7-0.7-1.9-0.7-2.5,0l-0.9,0.9l-4-5.4c-1.1-1.1-2.9-1-4,0.1c-1.1,1.1-1,2.9,0.1,4    l5.6,3.8l-0.9,0.9c-0.7,0.7-0.6,1.8,0.1,2.5s1.9,0.7,2.5,0l4.1-4.3C-779,557.7-779,556.5-779.8,555.9z"></path></g></g></svg>