<svg height='100px' width='100px'  fill="#1A1A1A" xmlns="http://www.w3.org/2000/svg" xmlns:xlink="http://www.w3.org/1999/xlink" version="1.1" x="0px" y="0px" viewBox="0 0 64 64" style="enable-background:new 0 0 64 64;" xml:space="preserve"><g><path d="M50,1H14C9.589,1,6,4.589,6,9v47c0,3.86,3.141,7,7,7h44c0.553,0,1-0.448,1-1V9C58,4.589,54.411,1,50,1z M8,9   c0-3.309,2.691-6,6-6h36c3.309,0,6,2.691,6,6v40H13c-1.957,0-3.729,0.807-5,2.105V9z M13,61c-2.757,0-5-2.243-5-5s2.243-5,5-5h43v2   H13c-1.654,0-3,1.346-3,3s1.346,3,3,3h43v2H13z M56,55v2H13c-0.552,0-1-0.449-1-1s0.448-1,1-1H56z"></path><path d="M21,26.945V40c0,0.552,0.447,1,1,1h20c0.553,0,1-0.448,1-1V26.945c4.494-0.499,8-4.32,8-8.945c0-4.962-4.037-9-9-9   c-0.795,0-1.574,0.11-2.331,0.313C38.085,6.732,35.245,5,32,5s-6.085,1.732-7.669,4.313C23.574,9.11,22.795,9,22,9   c-4.963,0-9,4.038-9,9C13,22.625,16.506,26.446,21,26.945z M23,39v-2h18v2H23z M22,11c0.498,0,0.988,0.056,1.467,0.159   C23.168,12.053,23,13.006,23,14h2c0-3.86,3.141-7,7-7s7,3.14,7,7h2c0-0.994-0.168-1.947-0.467-2.841C41.012,11.056,41.502,11,42,11   c3.859,0,7,3.14,7,7s-3.141,7-7,7c-0.553,0-1,0.448-1,1v9H23v-9c0-0.552-0.447-1-1-1c-3.859,0-7-3.14-7-7S18.141,11,22,11z"></path><path d="M47,18h-2c0,1.654-1.346,3-3,3v2C44.757,23,47,20.757,47,18z"></path><rect x="19" y="43" width="26" height="2"></rect></g></svg>